# Blender v2.72 (sub 0) OBJ File: ''
# www.blender.org
mtllib heli-rotor-top2.mtl
o Default.001
v 1.659742 1.578061 0.635646
v 1.620820 1.615821 0.632241
v 0.557535 0.457948 0.539187
v 0.513873 0.489284 0.535366
v 1.661757 1.578071 0.612620
v 1.766267 1.619341 0.621765
v 1.684884 1.554651 0.626245
v 1.829794 1.603811 0.638925
v 0.473296 0.523759 0.531816
v 1.581912 1.653561 0.628837
v 0.449565 0.548426 0.518139
v 1.558771 1.676980 0.615211
v 0.580195 0.430142 0.529568
v -1.590847 1.675251 0.351148
v -1.628457 1.636181 0.347857
v -0.474997 0.568832 0.448817
v -0.506217 0.525003 0.446087
v -1.588837 1.675251 0.328122
v -1.629947 1.780161 0.324522
v -1.566517 1.699471 0.341675
v -1.615497 1.844941 0.337387
v -0.540557 0.484271 0.443082
v -1.666057 1.597121 0.344568
v -0.564127 0.459438 0.429419
v -1.688387 1.572881 0.331013
v -0.446287 0.590567 0.439728
v -1.648377 -1.592209 0.346007
v -1.609447 -1.629959 0.349412
v -0.546167 -0.472088 0.442467
v -0.502507 -0.503423 0.446287
v -1.646357 -1.592209 0.322981
v -1.750867 -1.633479 0.313836
v -1.671497 -1.568799 0.332382
v -1.816407 -1.617949 0.319702
v -0.461927 -0.537898 0.449837
v -1.570547 -1.667699 0.352816
v -0.436187 -0.562565 0.440488
v -1.545387 -1.691129 0.343416
v -0.566817 -0.444281 0.429059
v 1.575455 -1.661109 0.628296
v 1.613065 -1.622039 0.631586
v 0.459601 -0.554690 0.530626
v 0.490817 -0.510860 0.533357
v 1.577470 -1.661109 0.605270
v 1.618586 -1.766019 0.608870
v 1.553141 -1.685329 0.614742
v 1.602113 -1.830799 0.619031
v 0.525161 -0.470129 0.536361
v 1.650662 -1.582979 0.634876
v 0.550741 -0.445296 0.526998
v 1.675005 -1.558739 0.625404
v 0.432908 -0.576425 0.516689
v 0.559550 0.457949 0.516160
v 1.622835 1.615821 0.609215
v 0.515888 0.489284 0.512340
v 1.745298 1.640511 0.619931
v 1.699851 1.686411 0.615955
v 1.769020 1.665191 0.633608
v 1.708246 1.726561 0.628291
v 1.697836 1.686411 0.638981
v 1.583927 1.653561 0.605811
v -0.472987 0.568832 0.425792
v -1.626447 1.636181 0.324831
v -0.504197 0.525002 0.423061
v -1.651047 1.759111 0.322676
v -1.696767 1.713490 0.318676
v -1.676637 1.783931 0.332037
v -1.737777 1.722931 0.326688
v -1.698787 1.713490 0.341702
v -1.664047 1.597121 0.321542
v -0.544157 -0.472087 0.419441
v -1.607437 -1.629959 0.326386
v -0.500487 -0.503422 0.423261
v -1.729897 -1.654660 0.315670
v -1.684457 -1.700549 0.319646
v -1.755637 -1.679330 0.325019
v -1.694867 -1.740709 0.330336
v -1.686467 -1.700549 0.342672
v -1.568527 -1.667699 0.329790
v 0.461616 -0.554690 0.507600
v 1.615080 -1.622039 0.608560
v 0.492832 -0.510861 0.510331
v 1.639682 -1.744969 0.610716
v 1.685404 -1.699349 0.614716
v 1.663255 -1.769789 0.624380
v 1.724397 -1.708789 0.629729
v 1.683389 -1.699349 0.637742
v 1.652677 -1.582979 0.611850
v 0.263960 0.288164 0.513496
v 0.248155 0.325094 0.512113
v 0.264903 0.288231 0.501977
v 0.242296 0.340422 0.500000
v 0.475311 0.523759 0.508790
v 0.250170 0.325095 0.489087
v 1.743283 1.640511 0.642957
v 1.764252 1.619341 0.644791
v -0.305857 0.274136 0.463624
v -0.342647 0.258270 0.460405
v -0.304917 0.274070 0.452106
v -0.356907 0.251377 0.447556
v -0.538547 0.484271 0.420056
v -0.340637 0.258270 0.437379
v -1.653067 1.759111 0.345702
v -1.631967 1.780161 0.347548
v -0.252597 -0.302303 0.468157
v -0.236787 -0.339234 0.469540
v -0.251517 -0.302370 0.456650
v -0.228917 -0.354561 0.458627
v -0.459917 -0.537898 0.426811
v -0.234777 -0.339233 0.446514
v -1.731917 -1.654660 0.338696
v -1.752887 -1.633479 0.336862
v 0.290463 -0.259993 0.515819
v 0.327253 -0.244128 0.519038
v 0.291537 -0.259928 0.504312
v 0.343530 -0.237235 0.508861
v 0.527176 -0.470129 0.513335
v 0.329268 -0.244128 0.496012
v 1.637667 -1.744969 0.633742
v 1.616571 -1.766019 0.631896
v 0.265975 0.288164 0.490470
v 0.296266 0.279317 0.493120
v 0.315767 0.272959 0.506428
v -0.303847 0.274135 0.440599
v -0.295027 0.304542 0.441369
v -0.289707 0.325129 0.453436
v -0.250577 -0.302303 0.445131
v -0.280867 -0.293456 0.442481
v -0.302387 -0.287098 0.452199
v 0.292478 -0.259994 0.492793
v 0.283664 -0.290401 0.492022
v 0.276323 -0.310987 0.502981
v 0.294252 0.279317 0.516146
v -0.297047 0.304543 0.464395
v -0.282887 -0.293456 0.465507
v 0.281649 -0.290400 0.515048
vt 0.000000 0.024541
vt 0.000000 0.500000
vt 1.000000 0.024541
vt 1.000000 0.500000
vt 1.000000 1.000000
vt 0.000000 0.000000
vt 1.000000 0.975459
vt 0.000000 1.000000
vt 0.500000 1.000000
vt 1.000000 0.000000
vt 0.975459 0.500000
vt 0.975459 0.975459
vt 0.000000 0.975459
vt 0.975459 0.024541
vt 0.500000 0.000000
vn -0.087200 -0.000000 0.996200
vn 0.210200 -0.328200 -0.920900
vn 0.181700 -0.293600 -0.938500
vn -0.305300 0.220000 0.926500
vn -0.312500 0.227800 0.922200
vn 0.139600 -0.220200 0.965400
vn 0.147500 -0.228000 0.962400
vn 0.408600 0.129100 -0.903600
vn 0.375500 0.099300 -0.921500
vn -0.301900 -0.223300 0.926800
vn -0.309400 -0.230900 0.922500
vn 0.136500 0.223300 0.965200
vn 0.144700 0.230900 0.962100
vn -0.047100 0.328300 -0.943400
vn -0.016000 0.293600 -0.955800
vn 0.139800 -0.220100 0.965400
vn 0.147500 -0.227800 0.962500
vn -0.305200 0.220100 0.926500
vn -0.312500 0.228100 0.922100
vn -0.245500 -0.129200 -0.960800
vn -0.209700 -0.099300 -0.972700
vn 0.136400 0.223400 0.965100
vn 0.144500 0.230900 0.962200
vn -0.302100 -0.223200 0.926800
vn -0.309700 -0.230900 0.922400
vn 0.087200 0.000000 -0.996200
vn 0.304300 0.221000 -0.926600
vn 0.304300 0.221100 -0.926600
vn -0.180400 0.296500 0.937800
vn -0.180800 0.355000 0.917200
vn -0.014800 0.296500 -0.954900
vn -0.018800 0.355000 -0.934700
vn -0.137400 0.222400 -0.965200
vn -0.137400 0.222300 -0.965200
vn -0.378200 -0.098000 0.920500
vn -0.434600 -0.100200 0.895000
vn -0.212500 -0.098000 -0.972200
vn -0.272600 -0.100200 -0.956900
vn -0.138800 -0.221000 -0.965300
vn -0.138800 -0.221000 -0.965400
vn 0.014800 -0.296400 0.954900
vn 0.018800 -0.354900 0.934700
vn 0.180400 -0.296400 -0.937900
vn 0.180800 -0.354900 -0.917300
vn 0.303000 -0.222400 -0.926700
vn 0.302900 -0.222400 -0.926700
vn 0.212500 0.098000 0.972200
vn 0.272500 0.100200 0.956900
vn 0.378100 0.097900 -0.920600
vn 0.434600 0.100200 -0.895000
vn -0.915500 -0.394700 -0.077200
vn -0.915000 -0.398700 -0.061900
vn -0.138100 0.221700 -0.965300
vn -0.313400 0.438700 -0.842200
vn 0.138700 0.221000 0.965400
vn 0.138800 0.221000 0.965300
vn 0.393000 -0.918800 0.037300
vn 0.395600 -0.916900 0.052900
vn -0.138100 -0.221700 -0.965300
vn -0.366300 -0.385700 -0.846800
vn -0.303000 0.222400 0.926700
vn 0.914900 0.394800 0.083600
vn 0.911900 0.398600 0.097800
vn 0.303600 -0.221700 -0.926600
vn 0.454900 -0.438600 -0.775100
vn -0.304300 -0.221100 0.926600
vn -0.304400 -0.221100 0.926500
vn -0.393500 0.918800 -0.031500
vn -0.398700 0.916900 -0.016700
vn 0.303700 0.221700 -0.926600
vn 0.507700 0.385600 -0.770400
vn 0.137400 -0.222400 0.965200
vn 0.305200 -0.220200 -0.926500
vn 0.312400 -0.228000 -0.922200
vn 0.047100 -0.328300 0.943400
vn 0.016000 -0.293600 0.955800
vn -0.278700 -0.960200 -0.020400
vn -0.284000 -0.957900 -0.041500
vn 0.302100 0.223200 -0.926800
vn 0.309600 0.230800 -0.922400
vn 0.245500 0.129200 0.960800
vn 0.209700 0.099300 0.972700
vn 0.956100 -0.279600 0.087300
vn 0.955700 -0.286500 0.067400
vn -0.139600 0.220200 -0.965400
vn -0.147500 0.228100 -0.962400
vn -0.210200 0.328300 0.920900
vn -0.181700 0.293700 0.938500
vn 0.278000 0.960200 0.028300
vn 0.286800 0.957900 0.008500
vn -0.136500 -0.223300 -0.965100
vn -0.144700 -0.230900 -0.962200
vn -0.408600 -0.129100 0.903500
vn -0.375400 -0.099200 0.921500
vn -0.956900 0.279400 -0.079800
vn -0.952800 0.286500 -0.100000
vn -0.303600 0.221700 0.926600
vn -0.454900 0.438600 0.775100
vn -0.277900 -0.960200 -0.028300
vn -0.286900 -0.957900 -0.008400
vn -0.303600 -0.221600 0.926600
vn -0.507800 -0.385600 0.770400
vn 0.956900 -0.279300 0.079700
vn 0.952900 -0.286500 0.100100
vn 0.138100 -0.221800 0.965300
vn 0.313400 -0.438700 0.842200
vn 0.278600 0.960200 0.020600
vn 0.283900 0.957900 0.041600
vn 0.138100 0.221700 0.965300
vn 0.366200 0.385600 0.846900
vn -0.956200 0.279400 -0.087700
vn -0.955700 0.286500 -0.067000
vn -0.139800 0.220000 -0.965400
vn -0.147600 0.227800 -0.962500
vn 0.304200 0.221100 -0.926600
vn 0.087100 -0.000000 -0.996200
vn -0.136400 -0.223400 -0.965100
vn -0.144500 -0.230900 -0.962200
vn 0.305300 -0.220000 -0.926500
vn 0.312400 -0.227800 -0.922200
vn 0.302000 0.223400 -0.926800
vn 0.309400 0.230900 -0.922500
vn 0.076400 -0.269800 0.959900
vn 0.244400 -0.469600 0.848400
vn -0.915100 -0.394700 -0.082900
vn -0.911800 -0.398700 -0.098000
vn 0.186000 0.159800 0.969500
vn 0.396100 0.317500 0.861600
vn 0.393500 -0.918800 0.031400
vn 0.398800 -0.916900 0.016500
vn -0.241900 0.269800 0.932000
vn -0.388100 0.469700 0.793000
vn 0.915600 0.394600 0.077000
vn 0.915100 0.398600 0.061700
vn -0.351600 -0.159700 0.922400
vn -0.539700 -0.317400 0.779700
vn -0.393000 0.918800 -0.037400
vn -0.395600 0.916900 -0.052800
vn 0.241900 -0.269800 -0.932000
vn 0.388000 -0.469700 -0.793000
vn 0.351500 0.159700 -0.922500
vn 0.539800 0.317500 -0.779600
vn -0.304300 -0.221000 0.926600
vn -0.076400 0.269800 -0.959900
vn -0.244400 0.469600 -0.848400
vn -0.186000 -0.159800 -0.969500
vn -0.396000 -0.317500 -0.861600
usemtl Default
s off
f 1/1/1 2/2/1 3/3/1
f 4/4/1 3/3/1 2/2/1
f 5/1/2 6/5/2 7/6/2
f 8/5/3 7/6/3 6/5/3
f 9/7/4 10/8/4 11/9/4
f 12/8/5 11/9/5 10/8/5
f 13/10/6 7/6/6 3/3/6
f 1/1/7 3/3/7 7/6/7
f 14/1/1 15/2/1 16/3/1
f 17/4/1 16/3/1 15/2/1
f 18/1/8 19/5/8 20/6/8
f 21/5/9 20/6/9 19/5/9
f 22/7/10 23/8/10 24/9/10
f 25/8/11 24/9/11 23/8/11
f 26/10/12 20/6/12 16/3/12
f 14/1/13 16/3/13 20/6/13
f 27/1/1 28/2/1 29/3/1
f 30/4/1 29/3/1 28/2/1
f 31/1/14 32/5/14 33/6/14
f 34/5/15 33/6/15 32/5/15
f 35/7/16 36/8/16 37/9/16
f 38/8/17 37/9/17 36/8/17
f 39/10/18 33/6/18 29/3/18
f 27/1/19 29/3/19 33/6/19
f 40/1/1 41/2/1 42/3/1
f 43/4/1 42/3/1 41/2/1
f 44/1/20 45/5/20 46/6/20
f 47/5/21 46/6/21 45/5/21
f 48/7/22 49/8/22 50/9/22
f 51/8/23 50/9/23 49/8/23
f 52/10/24 46/6/24 42/3/24
f 40/1/25 42/3/25 46/6/25
f 5/1/26 53/3/26 54/2/26
f 55/4/26 54/2/26 53/3/26
f 56/5/27 57/5/27 58/5/27
f 59/5/28 58/5/28 57/5/28
f 59/5/29 12/8/29 60/5/29
f 10/8/30 60/5/30 12/8/30
f 59/5/31 57/5/31 12/8/31
f 61/8/32 12/8/32 57/5/32
f 18/1/26 62/3/26 63/2/26
f 64/4/26 63/2/26 62/3/26
f 65/5/33 66/5/33 67/5/33
f 68/5/34 67/5/34 66/5/34
f 68/5/35 25/8/35 69/5/35
f 23/8/36 69/5/36 25/8/36
f 68/5/37 66/5/37 25/8/37
f 70/8/38 25/8/38 66/5/38
f 31/1/26 71/3/26 72/2/26
f 73/4/26 72/2/26 71/3/26
f 74/5/39 75/5/39 76/5/39
f 77/5/40 76/5/40 75/5/40
f 77/5/41 38/8/41 78/5/41
f 36/8/42 78/5/42 38/8/42
f 77/5/43 75/5/43 38/8/43
f 79/8/44 38/8/44 75/5/44
f 44/1/26 80/3/26 81/2/26
f 82/4/26 81/2/26 80/3/26
f 83/5/45 84/5/45 85/5/45
f 86/5/46 85/5/46 84/5/46
f 86/5/47 51/8/47 87/5/47
f 49/8/48 87/5/48 51/8/48
f 86/5/49 84/5/49 51/8/49
f 88/8/50 51/8/50 84/5/50
f 2/2/1 10/8/1 4/4/1
f 9/7/1 4/4/1 10/8/1
f 89/11/51 90/12/51 91/4/51
f 92/5/52 91/4/52 90/12/52
f 11/8/53 93/13/53 92/5/53
f 94/12/54 92/5/54 93/13/54
f 95/5/55 96/5/55 58/5/55
f 8/5/56 58/5/56 96/5/56
f 15/2/1 23/8/1 17/4/1
f 22/7/1 17/4/1 23/8/1
f 97/11/57 98/12/57 99/4/57
f 100/5/58 99/4/58 98/12/58
f 24/8/59 101/13/59 100/5/59
f 102/12/60 100/5/60 101/13/60
f 103/5/61 104/5/61 67/5/61
f 21/5/61 67/5/61 104/5/61
f 28/2/1 36/8/1 30/4/1
f 35/7/1 30/4/1 36/8/1
f 105/11/62 106/12/62 107/4/62
f 108/5/63 107/4/63 106/12/63
f 37/8/64 109/13/64 108/5/64
f 110/12/65 108/5/65 109/13/65
f 111/5/66 112/5/66 76/5/66
f 34/5/67 76/5/67 112/5/67
f 41/2/1 49/8/1 43/4/1
f 48/7/1 43/4/1 49/8/1
f 113/11/68 114/12/68 115/4/68
f 116/5/69 115/4/69 114/12/69
f 50/8/70 117/13/70 116/5/70
f 118/12/71 116/5/71 117/13/71
f 119/5/72 120/5/72 85/5/72
f 47/5/72 85/5/72 120/5/72
f 54/2/26 55/4/26 61/8/26
f 93/7/26 61/8/26 55/4/26
f 13/10/73 53/3/73 7/6/73
f 5/1/74 7/6/74 53/3/74
f 1/1/75 7/6/75 96/5/75
f 8/5/76 96/5/76 7/6/76
f 121/11/77 122/14/77 91/4/77
f 123/10/78 91/4/78 122/14/78
f 63/2/26 64/4/26 70/8/26
f 101/7/26 70/8/26 64/4/26
f 26/10/79 62/3/79 20/6/79
f 18/1/80 20/6/80 62/3/80
f 14/1/81 20/6/81 104/5/81
f 21/5/82 104/5/82 20/6/82
f 124/11/83 125/14/83 99/4/83
f 126/10/84 99/4/84 125/14/84
f 72/2/26 73/4/26 79/8/26
f 109/7/26 79/8/26 73/4/26
f 39/10/85 71/3/85 33/6/85
f 31/1/86 33/6/86 71/3/86
f 27/1/87 33/6/87 112/5/87
f 34/5/88 112/5/88 33/6/88
f 127/11/89 128/14/89 107/4/89
f 129/10/90 107/4/90 128/14/90
f 81/2/26 82/4/26 88/8/26
f 117/7/26 88/8/26 82/4/26
f 52/10/91 80/3/91 46/6/91
f 44/1/92 46/6/92 80/3/92
f 40/1/93 46/6/93 120/5/93
f 47/5/94 120/5/94 46/6/94
f 130/11/95 131/14/95 115/4/95
f 132/10/96 115/4/96 131/14/96
f 2/2/1 1/1/1 95/5/1
f 96/5/1 95/5/1 1/1/1
f 3/1/1 4/2/1 133/14/1
f 89/11/1 133/14/1 4/2/1
f 11/8/97 92/5/97 9/13/97
f 90/12/98 9/13/98 92/5/98
f 89/11/99 91/4/99 133/14/99
f 123/10/100 133/14/100 91/4/100
f 15/2/1 14/1/1 103/5/1
f 104/5/1 103/5/1 14/1/1
f 16/1/1 17/2/1 134/14/1
f 97/11/1 134/14/1 17/2/1
f 24/8/101 100/5/101 22/13/101
f 98/12/102 22/13/102 100/5/102
f 97/11/103 99/4/103 134/14/103
f 126/10/104 134/14/104 99/4/104
f 28/2/1 27/1/1 111/5/1
f 112/5/1 111/5/1 27/1/1
f 29/1/1 30/2/1 135/14/1
f 105/11/1 135/14/1 30/2/1
f 37/8/105 108/5/105 35/13/105
f 106/12/106 35/13/106 108/5/106
f 105/11/107 107/4/107 135/14/107
f 129/10/108 135/14/108 107/4/108
f 41/2/1 40/1/1 119/5/1
f 120/5/1 119/5/1 40/1/1
f 42/1/1 43/2/1 136/14/1
f 113/11/1 136/14/1 43/2/1
f 50/8/109 116/5/109 48/13/109
f 114/12/110 48/13/110 116/5/110
f 113/11/111 115/4/111 136/14/111
f 132/10/112 136/14/112 115/4/112
f 54/2/26 56/5/26 5/1/26
f 6/5/26 5/1/26 56/5/26
f 53/1/26 122/14/26 55/2/26
f 121/11/26 55/2/26 122/14/26
f 93/7/113 11/9/113 61/8/113
f 12/8/114 61/8/114 11/9/114
f 56/5/115 58/5/115 6/5/115
f 8/5/28 6/5/28 58/5/28
f 63/2/26 65/5/26 18/1/26
f 19/5/26 18/1/26 65/5/26
f 62/1/26 125/14/26 64/2/26
f 124/11/116 64/2/116 125/14/116
f 101/7/117 24/9/117 70/8/117
f 25/8/118 70/8/118 24/9/118
f 65/5/33 67/5/33 19/5/33
f 21/5/34 19/5/34 67/5/34
f 72/2/26 74/5/26 31/1/26
f 32/5/26 31/1/26 74/5/26
f 71/1/26 128/14/26 73/2/26
f 127/11/26 73/2/26 128/14/26
f 109/7/119 37/9/119 79/8/119
f 38/8/120 79/8/120 37/9/120
f 74/5/39 76/5/39 32/5/39
f 34/5/39 32/5/39 76/5/39
f 81/2/26 83/5/26 44/1/26
f 45/5/26 44/1/26 83/5/26
f 80/1/26 131/14/26 82/2/26
f 130/11/26 82/2/26 131/14/26
f 117/7/121 50/9/121 88/8/121
f 51/8/122 88/8/122 50/9/122
f 83/5/45 85/5/45 45/5/45
f 47/5/45 45/5/45 85/5/45
f 95/5/1 60/5/1 2/2/1
f 10/8/1 2/2/1 60/5/1
f 4/2/1 9/13/1 89/11/1
f 90/12/1 89/11/1 9/13/1
f 13/15/123 3/1/123 123/10/123
f 133/14/124 123/10/124 3/1/124
f 121/11/125 91/4/125 94/12/125
f 92/5/126 94/12/126 91/4/126
f 103/5/1 69/5/1 15/2/1
f 23/8/1 15/2/1 69/5/1
f 17/2/1 22/13/1 97/11/1
f 98/12/1 97/11/1 22/13/1
f 26/15/127 16/1/127 126/10/127
f 134/14/128 126/10/128 16/1/128
f 124/11/129 99/4/129 102/12/129
f 100/5/130 102/12/130 99/4/130
f 111/5/1 78/5/1 28/2/1
f 36/8/1 28/2/1 78/5/1
f 30/2/1 35/13/1 105/11/1
f 106/12/1 105/11/1 35/13/1
f 39/15/131 29/1/131 129/10/131
f 135/14/132 129/10/132 29/1/132
f 127/11/133 107/4/133 110/12/133
f 108/5/134 110/12/134 107/4/134
f 119/5/1 87/5/1 41/2/1
f 49/8/1 41/2/1 87/5/1
f 43/2/1 48/13/1 113/11/1
f 114/12/1 113/11/1 48/13/1
f 52/15/135 42/1/135 132/10/135
f 136/14/136 132/10/136 42/1/136
f 130/11/137 115/4/137 118/12/137
f 116/5/138 118/12/138 115/4/138
f 56/5/26 54/2/26 57/5/26
f 61/8/26 57/5/26 54/2/26
f 55/2/26 121/11/26 93/13/26
f 94/12/26 93/13/26 121/11/26
f 95/5/55 58/5/55 60/5/55
f 59/5/56 60/5/56 58/5/56
f 13/15/139 123/10/139 53/1/139
f 122/14/140 53/1/140 123/10/140
f 65/5/26 63/2/26 66/5/26
f 70/8/26 66/5/26 63/2/26
f 64/2/26 124/11/26 101/13/26
f 102/12/26 101/13/26 124/11/26
f 103/5/61 67/5/61 69/5/61
f 68/5/61 69/5/61 67/5/61
f 26/15/141 126/10/141 62/1/141
f 125/14/142 62/1/142 126/10/142
f 74/5/26 72/2/26 75/5/26
f 79/8/26 75/5/26 72/2/26
f 73/2/26 127/11/26 109/13/26
f 110/12/26 109/13/26 127/11/26
f 111/5/66 76/5/66 78/5/66
f 77/5/143 78/5/143 76/5/143
f 39/15/144 129/10/144 71/1/144
f 128/14/145 71/1/145 129/10/145
f 83/5/26 81/2/26 84/5/26
f 88/8/26 84/5/26 81/2/26
f 82/2/26 130/11/26 117/13/26
f 118/12/26 117/13/26 130/11/26
f 119/5/72 85/5/72 87/5/72
f 86/5/72 87/5/72 85/5/72
f 52/15/146 132/10/146 80/1/146
f 131/14/147 80/1/147 132/10/147
