# Blender v2.72 (sub 0) OBJ File: ''
# www.blender.org
mtllib heli-rotor-tail2.mtl
o Default.002
v -0.153326 -0.259620 -0.085543
v -0.149006 -0.267875 -0.094107
v -0.413226 -0.259620 -0.197155
v -0.418116 -0.267875 -0.209677
v -0.081306 -0.267875 -0.054483
v -0.094516 -0.267875 -0.022289
v -0.084626 -0.276130 -0.046399
v -0.090736 -0.276130 -0.031497
v 0.153324 -0.259620 0.085542
v 0.149004 -0.267875 0.094107
v 0.413224 -0.259620 0.197154
v 0.418114 -0.267875 0.209677
v 0.081314 -0.267875 0.054483
v 0.094524 -0.267875 0.022288
v 0.084634 -0.276130 0.046398
v 0.090744 -0.276130 0.031496
v -0.452786 -0.267875 -0.132080
v -0.440056 -0.276130 -0.137091
v -0.413226 -0.276130 -0.197155
v -0.090736 -0.259620 -0.031497
v -0.084626 -0.259620 -0.046399
v 0.413224 -0.276130 0.197154
v 0.452784 -0.267875 0.132080
v 0.440064 -0.276130 0.137091
v 0.090744 -0.259620 0.031496
v 0.084634 -0.259620 0.046398
v -0.183676 -0.267875 -0.018161
v -0.181946 -0.259620 -0.027827
v -0.153326 -0.276130 -0.085543
v 0.183674 -0.267875 0.018161
v 0.181944 -0.259620 0.027827
v 0.153324 -0.276130 0.085542
v -0.181946 -0.276130 -0.027827
v 0.181944 -0.276130 0.027827
v -0.440056 -0.259620 -0.137091
v 0.440064 -0.259620 0.137091
v 0.157344 -0.299244 -0.077909
v 0.161954 -0.307499 -0.069494
v 0.396534 -0.299244 -0.228879
v 0.409624 -0.307499 -0.225818
v 0.090954 -0.307499 -0.036152
v 0.071904 -0.307499 -0.065272
v 0.086174 -0.315754 -0.043464
v 0.077354 -0.315754 -0.056943
v -0.157346 -0.299244 0.077909
v -0.161946 -0.307499 0.069494
v -0.396526 -0.299244 0.228878
v -0.409626 -0.307499 0.225817
v -0.090956 -0.307499 0.036151
v -0.071906 -0.307499 0.065272
v -0.086166 -0.315754 0.043464
v -0.077356 -0.315754 0.056943
v 0.396534 -0.315754 -0.228879
v 0.365314 -0.307499 -0.298343
v 0.362234 -0.315754 -0.285016
v 0.077354 -0.299244 -0.056943
v 0.086174 -0.299244 -0.043464
v -0.396526 -0.315754 0.228878
v -0.365306 -0.307499 0.298342
v -0.362236 -0.315754 0.285015
v -0.077356 -0.299244 0.056943
v -0.086166 -0.299244 0.043464
v 0.119004 -0.307499 -0.141084
v 0.125984 -0.299244 -0.134183
v 0.157344 -0.315754 -0.077909
v -0.118996 -0.307499 0.141084
v -0.125986 -0.299244 0.134183
v -0.157346 -0.315754 0.077909
v 0.125984 -0.315754 -0.134183
v -0.125986 -0.315754 0.134183
v 0.362234 -0.299244 -0.285016
v -0.362236 -0.299244 0.285015
vt 0.000000 1.000000
vt 1.000000 1.000000
vt 1.000000 0.000000
vt 0.892593 0.892593
vt 0.892593 0.107407
vt 0.000000 0.000000
vt 0.000000 0.107407
vn 0.257700 0.757300 -0.600000
vn 0.257600 0.757400 -0.599900
vn 0.925100 -0.000300 0.379600
vn 0.925200 0.000500 0.379400
vn -0.257700 0.757400 0.600000
vn -0.257600 0.757500 0.599900
vn -0.925200 -0.000300 -0.379600
vn -0.925200 0.000500 -0.379400
vn -0.596000 -0.757500 -0.266300
vn -0.596300 -0.757300 -0.266400
vn 0.925100 -0.000200 0.379600
vn 0.925200 0.000600 0.379400
vn 0.596200 -0.757300 0.266400
vn 0.596400 -0.757200 0.266500
vn -0.925100 -0.000200 -0.379600
vn -0.925200 0.000600 -0.379400
vn 0.030200 0.757400 0.652200
vn 0.027100 0.738800 0.673400
vn 0.329900 -0.757300 -0.563600
vn 0.341400 -0.724100 -0.599200
vn -0.030200 0.757400 -0.652200
vn -0.027100 0.738800 -0.673400
vn -0.329900 -0.757400 0.563500
vn -0.341400 -0.724200 0.599200
vn -0.254500 -0.757400 0.601300
vn -0.254500 -0.757500 0.601200
vn 0.030200 -0.757400 0.652200
vn 0.027100 -0.738800 0.673400
vn 0.254500 -0.757400 -0.601300
vn 0.254600 -0.757300 -0.601400
vn -0.030200 -0.757400 -0.652200
vn -0.027100 -0.738800 -0.673400
vn 0.000000 -1.000000 -0.000000
vn -0.254500 0.757400 0.601300
vn -0.254500 0.757500 0.601200
vn 0.254500 0.757400 -0.601300
vn 0.254600 0.757300 -0.601400
vn 0.000000 1.000000 0.000000
vn 0.329900 0.757300 -0.563600
vn 0.341400 0.724100 -0.599200
vn -0.329900 0.757400 0.563500
vn -0.341400 0.724200 0.599200
vn 0.257700 -0.757300 -0.600000
vn 0.257600 -0.757400 -0.599900
vn -0.257700 -0.757400 0.600000
vn -0.257600 -0.757500 0.599900
vn -0.596000 0.757500 -0.266300
vn -0.596300 0.757300 -0.266400
vn 0.596200 0.757300 0.266400
vn 0.596400 0.757200 0.266500
vn 0.348500 0.757400 0.552100
vn 0.348500 0.757400 0.552200
vn -0.836800 -0.000300 0.547500
vn -0.836800 0.000000 0.547500
vn -0.348600 0.757300 -0.552300
vn -0.348400 0.757600 -0.552000
vn 0.836800 0.000600 -0.547400
vn 0.837100 -0.000600 -0.547100
vn 0.557200 -0.757400 -0.340400
vn 0.557100 -0.757400 -0.340400
vn -0.836800 0.000100 0.547500
vn -0.836800 0.000500 0.547500
vn -0.556900 -0.757600 0.340300
vn -0.557500 -0.757100 0.340500
vn 0.836800 0.000100 -0.547400
vn 0.837100 -0.001000 -0.547100
vn -0.554800 0.757200 -0.344700
vn -0.570300 0.738800 -0.359100
vn 0.277500 -0.757400 0.591000
vn 0.300500 -0.724000 0.620900
vn 0.554500 0.757500 0.344500
vn 0.570300 0.738800 0.359100
vn -0.277600 -0.757300 -0.591100
vn -0.300400 -0.724200 -0.620700
vn -0.351400 -0.757300 -0.550400
vn -0.351400 -0.757400 -0.550400
vn -0.554800 -0.757200 -0.344700
vn -0.570300 -0.738800 -0.359100
vn 0.351300 -0.757500 0.550300
vn 0.351300 -0.757600 0.550200
vn 0.554500 -0.757500 0.344500
vn 0.570300 -0.738800 0.359100
vn -0.351400 0.757300 -0.550400
vn -0.351400 0.757400 -0.550300
vn 0.351300 0.757500 0.550300
vn 0.351300 0.757600 0.550200
vn 0.277500 0.757400 0.591000
vn 0.300500 0.724000 0.620900
vn -0.277600 0.757300 -0.591100
vn -0.300400 0.724200 -0.620700
vn 0.348500 -0.757400 0.552100
vn 0.348500 -0.757400 0.552200
vn -0.348600 -0.757300 -0.552300
vn -0.348400 -0.757600 -0.552000
vn 0.557200 0.757400 -0.340400
vn 0.557100 0.757400 -0.340400
vn -0.556900 0.757600 0.340300
vn -0.557500 0.757100 0.340500
usemtl Default
s off
f 1/1/1 2/1/1 3/2/1
f 4/2/2 3/2/2 2/1/2
f 5/2/3 6/3/3 7/4/3
f 8/5/4 7/4/4 6/3/4
f 9/1/5 10/1/5 11/2/5
f 12/2/6 11/2/6 10/1/6
f 13/2/7 14/3/7 15/4/7
f 16/5/8 15/4/8 14/3/8
f 17/2/9 4/2/9 18/2/9
f 19/2/10 18/2/10 4/2/10
f 6/3/11 5/2/11 20/5/11
f 21/4/12 20/5/12 5/2/12
f 12/2/13 22/2/13 23/2/13
f 24/2/14 23/2/14 22/2/14
f 14/3/15 13/2/15 25/5/15
f 26/4/16 25/5/16 13/2/16
f 27/6/17 6/3/17 28/7/17
f 20/5/18 28/7/18 6/3/18
f 2/1/19 5/2/19 29/1/19
f 7/4/20 29/1/20 5/2/20
f 30/6/21 14/3/21 31/7/21
f 25/5/22 31/7/22 14/3/22
f 10/1/23 13/2/23 32/1/23
f 15/4/24 32/1/24 13/2/24
f 33/7/25 27/6/25 18/2/25
f 17/2/26 18/2/26 27/6/26
f 27/6/27 33/7/27 6/3/27
f 8/5/28 6/3/28 33/7/28
f 34/7/29 30/6/29 24/2/29
f 23/2/30 24/2/30 30/6/30
f 30/6/31 34/7/31 14/3/31
f 16/5/32 14/3/32 34/7/32
f 33/7/33 29/1/33 8/5/33
f 7/4/33 8/5/33 29/1/33
f 28/7/34 35/2/34 27/6/34
f 17/2/35 27/6/35 35/2/35
f 34/7/33 32/1/33 16/5/33
f 15/4/33 16/5/33 32/1/33
f 31/7/36 36/2/36 30/6/36
f 23/2/37 30/6/37 36/2/37
f 28/7/38 20/5/38 1/1/38
f 21/4/38 1/1/38 20/5/38
f 2/1/39 1/1/39 5/2/39
f 21/4/40 5/2/40 1/1/40
f 31/7/38 25/5/38 9/1/38
f 26/4/38 9/1/38 25/5/38
f 10/1/41 9/1/41 13/2/41
f 26/4/42 13/2/42 9/1/42
f 18/2/33 19/2/33 33/7/33
f 29/1/33 33/7/33 19/2/33
f 29/1/43 19/2/43 2/1/43
f 4/2/44 2/1/44 19/2/44
f 24/2/33 22/2/33 34/7/33
f 32/1/33 34/7/33 22/2/33
f 32/1/45 22/2/45 10/1/45
f 12/2/46 10/1/46 22/2/46
f 35/2/38 28/7/38 3/2/38
f 1/1/38 3/2/38 28/7/38
f 17/2/47 35/2/47 4/2/47
f 3/2/48 4/2/48 35/2/48
f 36/2/38 31/7/38 11/2/38
f 9/1/38 11/2/38 31/7/38
f 12/2/49 23/2/49 11/2/49
f 36/2/50 11/2/50 23/2/50
f 37/1/51 38/1/51 39/2/51
f 40/2/52 39/2/52 38/1/52
f 41/2/53 42/3/53 43/4/53
f 44/5/54 43/4/54 42/3/54
f 45/1/55 46/1/55 47/2/55
f 48/2/56 47/2/56 46/1/56
f 49/2/57 50/3/57 51/4/57
f 52/5/58 51/4/58 50/3/58
f 40/2/59 53/2/59 54/2/59
f 55/2/60 54/2/60 53/2/60
f 42/3/61 41/2/61 56/5/61
f 57/4/62 56/5/62 41/2/62
f 48/2/63 58/2/63 59/2/63
f 60/2/64 59/2/64 58/2/64
f 50/3/65 49/2/65 61/5/65
f 62/4/66 61/5/66 49/2/66
f 63/6/67 42/3/67 64/7/67
f 56/5/68 64/7/68 42/3/68
f 38/1/69 41/2/69 65/1/69
f 43/4/70 65/1/70 41/2/70
f 66/6/71 50/3/71 67/7/71
f 61/5/72 67/7/72 50/3/72
f 46/1/73 49/2/73 68/1/73
f 51/4/74 68/1/74 49/2/74
f 69/7/75 63/6/75 55/2/75
f 54/2/76 55/2/76 63/6/76
f 63/6/77 69/7/77 42/3/77
f 44/5/78 42/3/78 69/7/78
f 70/7/79 66/6/79 60/2/79
f 59/2/80 60/2/80 66/6/80
f 66/6/81 70/7/81 50/3/81
f 52/5/82 50/3/82 70/7/82
f 69/7/33 65/1/33 44/5/33
f 43/4/33 44/5/33 65/1/33
f 64/7/83 71/2/83 63/6/83
f 54/2/84 63/6/84 71/2/84
f 70/7/33 68/1/33 52/5/33
f 51/4/33 52/5/33 68/1/33
f 67/7/85 72/2/85 66/6/85
f 59/2/86 66/6/86 72/2/86
f 64/7/38 56/5/38 37/1/38
f 57/4/38 37/1/38 56/5/38
f 38/1/87 37/1/87 41/2/87
f 57/4/88 41/2/88 37/1/88
f 67/7/38 61/5/38 45/1/38
f 62/4/38 45/1/38 61/5/38
f 46/1/89 45/1/89 49/2/89
f 62/4/90 49/2/90 45/1/90
f 55/2/33 53/2/33 69/7/33
f 65/1/33 69/7/33 53/2/33
f 65/1/91 53/2/91 38/1/91
f 40/2/92 38/1/92 53/2/92
f 60/2/33 58/2/33 70/7/33
f 68/1/33 70/7/33 58/2/33
f 68/1/93 58/2/93 46/1/93
f 48/2/94 46/1/94 58/2/94
f 71/2/38 64/7/38 39/2/38
f 37/1/38 39/2/38 64/7/38
f 40/2/95 54/2/95 39/2/95
f 71/2/96 39/2/96 54/2/96
f 72/2/38 67/7/38 47/2/38
f 45/1/38 47/2/38 67/7/38
f 48/2/97 59/2/97 47/2/97
f 72/2/98 47/2/98 59/2/98
