# Blender v2.72 (sub 0) OBJ File: ''
# www.blender.org
mtllib hex.mtl
o Default
v 0.000000 -1.000000 -0.263974
v 0.000000 -1.000000 0.263974
v -0.866025 -0.500000 0.263974
v -0.866025 0.500000 0.263974
v -0.866025 0.500000 -0.263974
v 0.000000 1.000000 0.263974
v 0.866026 0.500000 0.263974
v 0.866025 0.500000 -0.263974
v 0.866025 -0.500000 0.263974
v 0.866025 -0.500000 -0.263974
v -0.866026 -0.500000 -0.263974
v 0.000000 1.000000 -0.263974
v -0.122967 -0.230906 0.276245
v 0.030835 -0.651087 0.326982
vt 0.965895 0.500344
vt 0.874105 0.500344
vt 0.874105 0.336437
vt 0.874105 0.173219
vt 0.965895 0.173219
vt 0.874105 0.010000
vt 0.874105 0.990000
vt 0.874105 0.826782
vt 0.965895 0.826782
vt 0.874105 0.663563
vt 0.965895 0.663563
vt 0.353542 0.445179
vt 0.353979 0.155577
vt 0.605437 0.010398
vt 0.965895 0.336437
vt 0.965895 0.010000
vt 0.965895 0.990000
vt 0.604563 0.589602
vt 0.856021 0.444423
vt 0.856458 0.154821
vn -0.500000 -0.866000 0.000000
vn -1.000000 0.000000 0.000000
vn -0.500000 0.866000 0.000000
vn 0.500000 0.866000 -0.000000
vn 0.500000 -0.866000 0.000000
vn 1.000000 -0.000000 0.000000
vn 0.000000 0.000000 -1.000000
usemtl None
s off
f 1/1/1 2/2/1 3/3/1
f 3/3/2 4/4/2 5/5/2
f 5/5/3 4/4/3 6/6/3
f 6/7/4 7/8/4 8/9/4
f 2/2/5 1/1/5 9/10/5
f 7/8/6 9/10/6 10/11/6
f 1/12/7 11/13/7 5/14/7
f 11/15/1 1/1/1 3/3/1
f 11/15/2 3/3/2 5/5/2
f 12/16/3 5/5/3 6/6/3
f 12/17/4 6/7/4 8/9/4
f 9/10/5 1/1/5 10/11/5
f 8/9/6 7/8/6 10/11/6
f 10/18/7 1/12/7 8/19/7
f 5/14/7 12/20/7 8/19/7
f 1/12/7 5/14/7 8/19/7
l 13 14
