# OBJ written from C:\Users\Mango Laptop\Dropbox\Public\m1a2 tank.obj
# Units	meters

o Mesh
v -0.8382 0.32385 -2.30188
v -0.8382 0.32385 1.36525
v -0.8382 0.7366 1.36525
v -0.8382 0.7366 -2.30188
v 0.8382 0.32385 -2.30188
v 0.8382 0.32385 1.36525
v 0.8382 0.7366 1.36525
v 0.8382 0.7366 -2.30188
v 0.04445 0.867569 -1.28905
v 0.0314309 0.836138 -1.28905
v -1.16098e-015 0.823119 -1.28905
v -0.0314309 0.836138 -1.28905
v -0.04445 0.867569 -1.28905
v -0.0314309 0.899 -1.28905
v -1.16098e-015 0.912019 -1.28905
v 0.0314309 0.899 -1.28905
v 0.04445 0.867569 -3.20834
v 0.0314309 0.836138 -3.20834
v 1.16098e-015 0.823119 -3.20834
v -0.0314309 0.836138 -3.20834
v -0.04445 0.867569 -3.20834
v -0.0314309 0.899 -3.20834
v 1.16098e-015 0.912019 -3.20834
v 0.0314309 0.899 -3.20834
v 0.0314309 0.836138 -3.18424
v 0.04445 0.867569 -3.18424
v 1.13183e-015 0.823119 -3.18424
v -0.0314309 0.836138 -3.18424
v -0.04445 0.867569 -3.18424
v -0.0314309 0.899 -3.18424
v 1.13183e-015 0.912019 -3.18424
v 0.0314309 0.899 -3.18424
v 0.04445 0.867569 -3.09578
v 0.0314309 0.836138 -3.09578
v 1.02481e-015 0.823119 -3.09578
v -0.0314309 0.836138 -3.09578
v -0.04445 0.867569 -3.09578
v -0.0314309 0.899 -3.09578
v 1.02481e-015 0.912019 -3.09578
v 0.0314309 0.899 -3.09578
v 0.0229258 0.844643 -3.18424
v 0.0324219 0.867569 -3.18424
v 1.13183e-015 0.835147 -3.18424
v -0.0229258 0.844643 -3.18424
v -0.0324219 0.867569 -3.18424
v -0.0229258 0.890494 -3.18424
v 1.13183e-015 0.899991 -3.18424
v 0.0229258 0.890494 -3.18424
v 0.0324219 0.867569 -3.09578
v 0.0229258 0.844643 -3.09578
v 1.02481e-015 0.835147 -3.09578
v -0.0229258 0.844643 -3.09578
v -0.0324219 0.867569 -3.09578
v -0.0229258 0.890494 -3.09578
v 1.02481e-015 0.899991 -3.09578
v 0.0229258 0.890494 -3.09578
v 0.0314309 0.836138 -2.40019
v 0.04445 0.867569 -2.40019
v 1.8328e-016 0.823119 -2.40019
v -0.0314309 0.836138 -2.40019
v -0.04445 0.867569 -2.40019
v -0.0314309 0.899 -2.40019
v 1.8328e-016 0.912019 -2.40019
v 0.0314309 0.899 -2.40019
v 0.0650696 0.867569 -1.28905
v 0.0460111 0.821558 -1.28905
v -1.16098e-015 0.802499 -1.28905
v -0.0460111 0.821558 -1.28905
v -0.0650696 0.867569 -1.28905
v -0.0460111 0.91358 -1.28905
v -1.16098e-015 0.932638 -1.28905
v 0.0460111 0.91358 -1.28905
v 0.0460111 0.821558 -2.40019
v 0.0650696 0.867569 -2.40019
v 1.8328e-016 0.802499 -2.40019
v -0.0460111 0.821558 -2.40019
v -0.0650696 0.867569 -2.40019
v -0.0460111 0.91358 -2.40019
v 1.8328e-016 0.932638 -2.40019
v 0.0460111 0.91358 -2.40019
v 0.0650696 0.867569 -2.33908
v 0.0460111 0.821558 -2.33908
v 1.09346e-016 0.802499 -2.33908
v -0.0460111 0.821558 -2.33908
v -0.0650696 0.867569 -2.33908
v -0.0460111 0.91358 -2.33908
v 1.09346e-016 0.932638 -2.33908
v 0.0460111 0.91358 -2.33908
v 0.0460111 0.821558 -2.05557
v 0.0650696 0.867569 -2.05557
v -2.33642e-016 0.802499 -2.05557
v -0.0460111 0.821558 -2.05557
v -0.0650696 0.867569 -2.05557
v -0.0460111 0.91358 -2.05557
v -2.33642e-016 0.932638 -2.05557
v 0.0460111 0.91358 -2.05557
v 0.078449 0.880269 -2.32439
v 0.0554718 0.824797 -2.32439
v 9.15804e-017 0.80182 -2.32439
v -0.0554718 0.824797 -2.32439
v -0.078449 0.880269 -2.32439
v -0.0554718 0.935741 -2.32439
v 9.15804e-017 0.958718 -2.32439
v 0.0554718 0.935741 -2.32439
v 0.0554718 0.824797 -2.07025
v 0.078449 0.880269 -2.07025
v -2.15877e-016 0.80182 -2.07025
v -0.0554718 0.824797 -2.07025
v -0.078449 0.880269 -2.07025
v -0.0554718 0.935741 -2.07025
v -2.15877e-016 0.958718 -2.07025
v 0.0554718 0.935741 -2.07025
v 0.0650696 0.867569 -1.78346
v 0.0460111 0.821558 -1.78346
v -5.62847e-016 0.802499 -1.78346
v -0.0460111 0.821558 -1.78346
v -0.0650696 0.867569 -1.78346
v -0.0460111 0.91358 -1.78346
v -5.62847e-016 0.932638 -1.78346
v 0.0460111 0.91358 -1.78346
v 0.0753794 0.867569 -1.28905
v 0.0533013 0.814267 -1.28905
v -1.16098e-015 0.792189 -1.28905
v -0.0533013 0.814267 -1.28905
v -0.0753794 0.867569 -1.28905
v -0.0533013 0.92087 -1.28905
v -1.16098e-015 0.942948 -1.28905
v 0.0533013 0.92087 -1.28905
v 0.0753794 0.867569 -1.78346
v 0.0533013 0.814267 -1.78346
v -5.62847e-016 0.792189 -1.78346
v -0.0533013 0.814267 -1.78346
v -0.0753794 0.867569 -1.78346
v -0.0533013 0.92087 -1.78346
v -5.62847e-016 0.942948 -1.78346
v 0.0533013 0.92087 -1.78346
v -0.7112 0.75565 -1.2065
v 0.790575 0.75565 -1.2065
v 0.790575 0.75565 0.5715
v -0.7112 0.75565 0.5715
v -0.55245 1.0414 -1.2065
v 0.6223 1.0414 -1.2065
v 0.6223 1.0414 0.5715
v -0.55245 1.0414 0.5715
v -0.238141 0.75565 -1.54305
v 0.317516 0.75565 -1.54305
v -0.179403 1.0414 -1.54305
v 0.255254 1.0414 -1.54305
v -0.7874 0 -1.5748
v -0.7874 0.53975 -1.5748
v -0.4826 0.53975 -1.5748
v -0.4826 0 -1.5748
v -0.7874 0 0.635
v -0.7874 0.53975 0.635
v -0.4826 0.53975 0.635
v -0.4826 0 0.635
v -0.7874 0.2921 1.2065
v -0.7874 0.53975 1.2065
v -0.4826 0.53975 1.2065
v -0.4826 0.2921 1.2065
v -0.7874 0.3048 -2.0447
v -0.7874 0.53975 -2.0447
v -0.4826 0.53975 -2.0447
v -0.4826 0.3048 -2.0447
v 0.7874 0 -1.5748
v 0.7874 0.53975 -1.5748
v 0.4826 0.53975 -1.5748
v 0.4826 0 -1.5748
v 0.7874 0 0.635
v 0.7874 0.53975 0.635
v 0.4826 0.53975 0.635
v 0.4826 0 0.635
v 0.7874 0.2921 1.2065
v 0.7874 0.53975 1.2065
v 0.4826 0.53975 1.2065
v 0.4826 0.2921 1.2065
v 0.7874 0.3048 -2.0447
v 0.7874 0.53975 -2.0447
v 0.4826 0.53975 -2.0447
v 0.4826 0.3048 -2.0447
vn 0 -1 0
vn 0 1 0
vn 1 0 0
vn 0 0 -1
vn 0.382683 -0.92388 4.62971e-016
vn -0.92388 -0.382683 0
vn -0.382683 0.92388 -4.62971e-016
vn 0.92388 0.382683 0
vn 0 0 1
vn 0.382683 -0.92388 0
vn -0.923879 -0.382684 0
vn -0.382683 0.92388 0
vn 0.923879 0.382684 0
vn 0.382596 -0.923669 -0.0213588
vn -0.898243 -0.372064 -0.23394
vn 0.382596 -0.923669 0.0213582
vn -0.898243 -0.372064 0.23394
vn -6.8426e-008 0.490635 0.871365
vn -0.410919 0.375158 0.830904
vn 0.599451 0.248301 0.760924
vn 0.410919 0.375158 0.830904
vn 0.898243 -0.372064 -0.23394
vn 6.8426e-008 0.490635 -0.871365
vn 0.410919 0.375158 -0.830904
vn -0.599451 0.248301 -0.760924
vn -0.410919 0.375158 -0.830904
vn -0.382596 -0.923669 -0.0213582
vn -0.382683 0.92388 -4.62972e-016
vn 0.382682 -0.92388 0
vn -0.382682 0.92388 0
vn 0.861688 0.507438 0
vn -0.874157 0.485643 0
vn -0.292809 0.162672 -0.942232
vn 0 -0.972223 0.234057
vn 0 -0.958896 -0.283759
vn 0 -0.890435 0.455111
vn -1 0 0
vn 0.92388 -0.382683 0
vn -0.382683 -0.92388 0
vn -0.92388 0.382683 0
vn 0.382683 0.92388 0
vn 0.923879 -0.382684 0
vn -0.382683 -0.92388 -4.62971e-016
vn -0.923879 0.382684 0
vn 0.382683 0.92388 4.62971e-016
vn 0.898243 -0.372064 0.23394
vn -0.382596 -0.923669 0.0213588
vn -0.599451 0.248301 0.760924
vn 0.599451 0.248301 -0.760924
vn -0.382682 -0.92388 -4.6297e-016
vn 0.382682 0.92388 4.6297e-016
vn 0.627922 0.369776 -0.68482
vn -0.551788 0.306549 -0.775601
vn 0 -0.838961 -0.544191
vt 1 0.666667
vt 0.75 0.666667
vt 1 0.333333
vt 0.75 0.333333
vt 0.5 0.666667
vt 0.25 0.666667
vt 0.5 0.333333
vt 0.25 0.333333
vt 0.25 1
vt 0.5 1
vt 0.345671 0.98097
vt 0.154329 0.98097
vt 0.48097 0.845671
vt 0.48097 0.654329
vt 0.0190301 0.845671
vt 0.345671 0.51903
vt 0.0190301 0.654329
vt 0.154329 0.51903
vt 0.25 0.49
vt 0.25 0.5
vt 0.125 0.49
vt 0.125 0.5
vt 0.5 0.49
vt 0.5 0.5
vt 0.375 0.49
vt 0.375 0.5
vt 0.75 0.49
vt 0.75 0.5
vt 0.625 0.49
vt 0.625 0.5
vt 1 0.49
vt 1 0.5
vt 0.875 0.49
vt 0.875 0.5
vt 0 0.49
vt 0 0.46795
vt 0.125 0.46795
vt 0.25 0.46795
vt 0.375 0.46795
vt 0.625 0.46795
vt 0.5 0.46795
vt 0.875 0.46795
vt 0.75 0.46795
vt 1 0.46795
vt 0.25 0.287789
vt 0.125 0.287789
vt 0.5 0.287789
vt 0.375 0.287789
vt 0.75 0.287789
vt 0.625 0.287789
vt 1 0.287789
vt 0.875 0.287789
vt 0 0
vt 0.125 0
vt 0.25 0
vt 0.375 0
vt 0.5 0
vt 0.625 0
vt 0.875 0
vt 0.75 0
vt 0.125 0.271961
vt 0.25 0.271961
vt 0.375 0.271961
vt 0.5 0.271961
vt 0.625 0.271961
vt 0.75 0.271961
vt 0.875 0.271961
vt 1 0.271961
vt 0.25 0.198531
vt 0.25 0.236638
vt 0.125 0.198531
vt 0.125 0.236638
vt 0.375 0.198531
vt 0.5 0.198531
vt 0.375 0.236638
vt 0.5 0.236638
vt 0.75 0.236638
vt 0.625 0.236638
vt 0.75 0.198531
vt 0.625 0.198531
vt 1 0.198531
vt 1 0.236638
vt 0.875 0.198531
vt 0.875 0.236638
vt 0 0.271961
vt 0.125 0.233854
vt 0 0.233854
vt 0.75 0.233854
vt 0.875 0.233854
vt 0.5 0.233854
vt 0.625 0.233854
vt 0.25 0.233854
vt 0.375 0.233854
vt 1 0.233854
vt 0.125 0.128053
vt 0.25 0.128053
vt 0.375 0.128053
vt 0.5 0.128053
vt 0.625 0.128053
vt 0.75 0.128053
vt 0.875 0.128053
vt 1 0.128053
vt 1 0
vt 0 0.128053
vt 0 0.666667
vt 0 0.333333
vt 0.51903 0.845671
vt 0.654329 0.98097
vt 0.51903 0.654329
vt 0.654329 0.51903
vt 0.845671 0.98097
vt 0.845671 0.51903
vt 0.98097 0.845671
vt 0.98097 0.654329
vt 0 0.5
vt 0 0.287789
vt 0 0.198531
vt 0 0.236638
mtllib m1a2 tank.mtl
usemtl Default
g Default
f 5/1/1 6/2/1 1/3/1
f 2/4/1 1/3/1 6/2/1
f 7/5/2 8/6/2 3/7/2
f 4/8/2 3/7/2 8/6/2
f 5/9/3 8/6/3 6/10/3
f 7/5/3 6/10/3 8/6/3
f 18/11/4 19/12/4 17/13/4
f 24/14/4 17/13/4 19/12/4
f 19/12/4 20/15/4 24/14/4
f 23/16/4 24/14/4 20/15/4
f 20/15/4 21/17/4 23/16/4
f 22/18/4 23/16/4 21/17/4
f 27/19/5 19/20/5 25/21/5
f 18/22/5 25/21/5 19/20/5
f 29/23/6 21/24/6 28/25/6
f 20/26/6 28/25/6 21/24/6
f 31/27/7 23/28/7 30/29/7
f 22/30/7 30/29/7 23/28/7
f 26/31/8 17/32/8 32/33/8
f 24/34/8 32/33/8 17/32/8
f 30/29/9 29/23/9 46/29/9
f 45/23/9 46/29/9 29/23/9
f 27/19/9 43/19/9 28/25/9
f 44/25/9 28/25/9 43/19/9
f 26/35/9 42/35/9 25/21/9
f 41/21/9 25/21/9 42/35/9
f 32/33/9 31/27/9 48/33/9
f 47/27/9 48/33/9 31/27/9
f 33/36/4 34/37/4 49/36/4
f 50/37/4 49/36/4 34/37/4
f 35/38/4 36/39/4 51/38/4
f 52/39/4 51/38/4 36/39/4
f 38/40/4 54/40/4 37/41/4
f 53/41/4 37/41/4 54/40/4
f 40/42/4 56/42/4 39/43/4
f 55/43/4 39/43/4 56/42/4
f 41/21/10 50/37/10 43/19/10
f 51/38/10 43/19/10 50/37/10
f 44/25/11 52/39/11 45/23/11
f 53/41/11 45/23/11 52/39/11
f 46/29/12 54/40/12 47/27/12
f 55/43/12 47/27/12 54/40/12
f 48/33/13 56/42/13 42/31/13
f 49/44/13 42/31/13 56/42/13
f 59/45/5 35/38/5 57/46/5
f 34/37/5 57/46/5 35/38/5
f 61/47/6 37/41/6 60/48/6
f 36/39/6 60/48/6 37/41/6
f 63/49/7 39/43/7 62/50/7
f 38/40/7 62/50/7 39/43/7
f 58/51/8 33/44/8 64/52/8
f 40/42/8 64/52/8 33/44/8
f 78/50/4 79/49/4 62/50/4
f 63/49/4 62/50/4 79/49/4
f 77/47/4 61/47/4 76/48/4
f 60/48/4 76/48/4 61/47/4
f 75/45/4 59/45/4 73/46/4
f 57/46/4 73/46/4 59/45/4
f 74/51/4 58/51/4 80/52/4
f 64/52/4 80/52/4 58/51/4
f 65/53/9 9/53/9 66/54/9
f 10/54/9 66/54/9 9/53/9
f 67/55/9 11/55/9 68/56/9
f 12/56/9 68/56/9 11/55/9
f 69/57/9 13/57/9 70/58/9
f 14/58/9 70/58/9 13/57/9
f 72/59/9 71/60/9 16/59/9
f 15/60/9 16/59/9 71/60/9
f 73/46/10 82/61/14 75/45/10
f 83/62/14 75/45/10 82/61/14
f 76/48/6 84/63/15 77/47/6
f 85/64/15 77/47/6 84/63/15
f 78/50/12 86/65/12 79/49/12
f 87/66/12 79/49/12 86/65/12
f 80/52/8 88/67/8 74/51/8
f 81/68/8 74/51/8 88/67/8
f 91/69/16 107/70/16 89/71/16
f 105/72/16 89/71/16 107/70/16
f 92/73/17 93/74/17 108/75/17
f 109/76/17 108/75/17 93/74/17
f 111/77/18 110/78/19 95/79/18
f 94/80/19 95/79/18 110/78/19
f 90/81/20 106/82/20 96/83/21
f 112/84/21 96/83/21 106/82/20
f 82/61/22 81/85/22 98/86/22
f 97/87/22 98/86/22 81/85/22
f 103/88/23 104/89/24 87/66/23
f 88/67/24 87/66/23 104/89/24
f 85/64/25 101/90/25 86/65/26
f 102/91/26 86/65/26 101/90/25
f 83/62/27 99/92/27 84/63/27
f 100/93/27 84/63/27 99/92/27
f 107/70/16 99/92/14 105/72/16
f 98/86/14 105/72/16 99/92/14
f 109/76/17 101/90/15 108/75/17
f 100/93/15 108/75/17 101/90/15
f 111/77/28 103/88/28 110/78/28
f 102/91/28 110/78/28 103/88/28
f 106/82/8 97/94/8 112/84/8
f 104/89/8 112/84/8 97/94/8
f 89/71/16 114/95/10 91/69/16
f 115/96/10 91/69/16 114/95/10
f 92/73/17 116/97/6 93/74/17
f 117/98/6 93/74/17 116/97/6
f 94/80/12 118/99/12 95/79/12
f 119/100/12 95/79/12 118/99/12
f 96/83/8 120/101/8 90/81/8
f 113/102/8 90/81/8 120/101/8
f 127/60/9 126/58/9 71/60/9
f 70/58/9 71/60/9 126/58/9
f 128/59/9 72/59/9 121/103/9
f 65/103/9 121/103/9 72/59/9
f 122/54/9 66/54/9 123/55/9
f 67/55/9 123/55/9 66/54/9
f 124/56/9 68/56/9 125/57/9
f 69/57/9 125/57/9 68/56/9
f 130/95/4 114/95/4 129/104/4
f 113/104/4 129/104/4 114/95/4
f 135/100/4 136/101/4 119/100/4
f 120/101/4 119/100/4 136/101/4
f 134/99/4 118/99/4 133/98/4
f 117/98/4 133/98/4 118/99/4
f 132/97/4 116/97/4 131/96/4
f 115/96/4 131/96/4 116/97/4
f 130/95/29 122/54/29 131/96/29
f 123/55/29 131/96/29 122/54/29
f 132/97/6 124/56/6 133/98/6
f 125/57/6 133/98/6 124/56/6
f 134/99/30 126/58/30 135/100/30
f 127/60/30 135/100/30 126/58/30
f 136/101/8 128/59/8 129/102/8
f 121/103/8 129/102/8 128/59/8
f 142/2/31 143/5/31 138/4/31
f 139/7/31 138/4/31 143/5/31
f 144/6/32 141/105/32 140/8/32
f 137/106/32 140/8/32 141/105/32
f 141/1/2 142/2/2 147/1/2
f 148/2/2 147/1/2 142/2/2
f 138/4/1 137/3/1 146/4/1
f 145/3/1 146/4/1 137/3/1
f 146/4/4 145/3/33 148/2/4
f 147/1/33 148/2/4 145/3/33
f 154/2/2 155/5/2 150/4/2
f 151/7/2 150/4/2 155/5/2
f 156/6/34 153/105/34 152/8/35
f 149/106/35 152/8/35 153/105/34
f 155/5/2 154/10/2 159/5/2
f 158/10/2 159/5/2 154/10/2
f 153/9/34 156/6/34 157/9/36
f 160/6/36 157/9/36 156/6/34
f 149/55/37 150/57/37 161/55/37
f 162/57/37 161/55/37 150/57/37
f 152/8/3 164/8/3 151/7/3
f 163/7/3 151/7/3 164/8/3
f 161/55/4 162/57/4 164/8/4
f 163/7/4 164/8/4 162/57/4
f 170/2/2 166/4/2 171/5/2
f 167/7/2 171/5/2 166/4/2
f 172/6/34 168/8/35 169/105/34
f 165/106/35 169/105/34 168/8/35
f 171/5/2 175/5/2 170/10/2
f 174/10/2 170/10/2 175/5/2
f 169/9/34 173/9/36 172/6/34
f 176/6/36 172/6/34 173/9/36
f 165/55/3 177/55/3 166/57/3
f 178/57/3 166/57/3 177/55/3
f 168/8/37 167/7/37 180/8/37
f 179/7/37 180/8/37 167/7/37
f 177/55/4 180/8/4 178/57/4
f 179/7/4 178/57/4 180/8/4
f 1/55/37 2/57/37 4/8/37
f 3/7/37 4/8/37 2/57/37
f 6/2/9 7/5/9 2/4/9
f 3/7/9 2/4/9 7/5/9
f 8/6/4 5/105/4 4/8/4
f 1/106/4 4/8/4 5/105/4
f 12/107/9 11/108/9 13/109/9
f 14/110/9 13/109/9 11/108/9
f 11/108/9 10/111/9 14/110/9
f 15/112/9 14/110/9 10/111/9
f 10/111/9 9/113/9 15/112/9
f 16/114/9 15/112/9 9/113/9
f 25/21/38 18/22/38 26/35/38
f 17/115/38 26/35/38 18/22/38
f 28/25/39 20/26/39 27/19/39
f 19/20/39 27/19/39 20/26/39
f 30/29/40 22/30/40 29/23/40
f 21/24/40 29/23/40 22/30/40
f 32/33/41 24/34/41 31/27/41
f 23/28/41 31/27/41 24/34/41
f 30/29/9 46/29/9 31/27/9
f 47/27/9 31/27/9 46/29/9
f 29/23/9 28/25/9 45/23/9
f 44/25/9 45/23/9 28/25/9
f 27/19/9 25/21/9 43/19/9
f 41/21/9 43/19/9 25/21/9
f 32/33/9 48/33/9 26/31/9
f 42/31/9 26/31/9 48/33/9
f 40/42/4 33/44/4 56/42/4
f 49/44/4 56/42/4 33/44/4
f 35/38/4 51/38/4 34/37/4
f 50/37/4 34/37/4 51/38/4
f 37/41/4 53/41/4 36/39/4
f 52/39/4 36/39/4 53/41/4
f 38/40/4 39/43/4 54/40/4
f 55/43/4 54/40/4 39/43/4
f 42/35/42 49/36/42 41/21/42
f 50/37/42 41/21/42 49/36/42
f 43/19/43 51/38/43 44/25/43
f 52/39/43 44/25/43 51/38/43
f 45/23/44 53/41/44 46/29/44
f 54/40/44 46/29/44 53/41/44
f 47/27/45 55/43/45 48/33/45
f 56/42/45 48/33/45 55/43/45
f 57/46/38 34/37/38 58/116/38
f 33/36/38 58/116/38 34/37/38
f 60/48/39 36/39/39 59/45/39
f 35/38/39 59/45/39 36/39/39
f 62/50/40 38/40/40 61/47/40
f 37/41/40 61/47/40 38/40/40
f 64/52/41 40/42/41 63/49/41
f 39/43/41 63/49/41 40/42/41
f 80/52/4 64/52/4 79/49/4
f 63/49/4 79/49/4 64/52/4
f 77/47/4 78/50/4 61/47/4
f 62/50/4 61/47/4 78/50/4
f 75/45/4 76/48/4 59/45/4
f 60/48/4 59/45/4 76/48/4
f 74/116/4 73/46/4 58/116/4
f 57/46/4 58/116/4 73/46/4
f 65/103/9 72/59/9 9/103/9
f 16/59/9 9/103/9 72/59/9
f 67/55/9 66/54/9 11/55/9
f 10/54/9 11/55/9 66/54/9
f 69/57/9 68/56/9 13/57/9
f 12/56/9 13/57/9 68/56/9
f 70/58/9 14/58/9 71/60/9
f 15/60/9 71/60/9 14/58/9
f 74/116/38 81/85/22 73/46/38
f 82/61/22 73/46/38 81/85/22
f 75/45/43 83/62/27 76/48/43
f 84/63/27 76/48/43 83/62/27
f 77/47/40 85/64/40 78/50/40
f 86/65/40 78/50/40 85/64/40
f 79/49/45 87/66/45 80/52/45
f 88/67/45 80/52/45 87/66/45
f 89/71/46 105/72/46 90/117/46
f 106/118/46 90/117/46 105/72/46
f 91/69/47 92/73/47 107/70/47
f 108/75/47 107/70/47 92/73/47
f 93/74/48 94/80/19 109/76/48
f 110/78/19 109/76/48 94/80/19
f 111/77/18 95/79/18 112/84/21
f 96/83/21 112/84/21 95/79/18
f 83/62/14 82/61/14 99/92/14
f 98/86/14 99/92/14 82/61/14
f 81/68/49 88/67/24 97/94/49
f 104/89/24 97/94/49 88/67/24
f 103/88/23 87/66/23 102/91/26
f 86/65/26 102/91/26 87/66/23
f 84/63/15 100/93/15 85/64/15
f 101/90/15 85/64/15 100/93/15
f 105/72/46 98/86/22 106/118/46
f 97/87/22 106/118/46 98/86/22
f 108/75/47 100/93/27 107/70/47
f 99/92/27 107/70/47 100/93/27
f 110/78/40 102/91/40 109/76/40
f 101/90/40 109/76/40 102/91/40
f 112/84/41 104/89/41 111/77/41
f 103/88/41 111/77/41 104/89/41
f 90/117/46 113/104/38 89/71/46
f 114/95/38 89/71/46 113/104/38
f 91/69/47 115/96/43 92/73/47
f 116/97/43 92/73/47 115/96/43
f 93/74/40 117/98/40 94/80/40
f 118/99/40 94/80/40 117/98/40
f 95/79/45 119/100/45 96/83/45
f 120/101/45 96/83/45 119/100/45
f 126/58/9 125/57/9 70/58/9
f 69/57/9 70/58/9 125/57/9
f 127/60/9 71/60/9 128/59/9
f 72/59/9 128/59/9 71/60/9
f 122/54/9 121/53/9 66/54/9
f 65/53/9 66/54/9 121/53/9
f 124/56/9 123/55/9 68/56/9
f 67/55/9 68/56/9 123/55/9
f 130/95/4 131/96/4 114/95/4
f 115/96/4 114/95/4 131/96/4
f 136/101/4 129/102/4 120/101/4
f 113/102/4 120/101/4 129/102/4
f 135/100/4 119/100/4 134/99/4
f 118/99/4 134/99/4 119/100/4
f 132/97/4 133/98/4 116/97/4
f 117/98/4 116/97/4 133/98/4
f 129/104/38 121/53/38 130/95/38
f 122/54/38 130/95/38 121/53/38
f 131/96/50 123/55/50 132/97/50
f 124/56/50 132/97/50 123/55/50
f 133/98/40 125/57/40 134/99/40
f 126/58/40 134/99/40 125/57/40
f 135/100/51 127/60/51 136/101/51
f 128/59/51 136/101/51 127/60/51
f 137/55/1 138/57/1 140/8/1
f 139/7/1 140/8/1 138/57/1
f 140/8/9 139/7/9 144/6/9
f 143/5/9 144/6/9 139/7/9
f 141/9/2 144/6/2 142/10/2
f 143/5/2 142/10/2 144/6/2
f 138/4/52 146/4/52 142/2/52
f 148/2/52 142/2/52 146/4/52
f 137/3/53 141/1/53 145/3/33
f 147/1/33 145/3/33 141/1/53
f 153/1/37 154/2/37 149/3/37
f 150/4/37 149/3/37 154/2/37
f 155/5/3 156/6/3 151/7/3
f 152/8/3 151/7/3 156/6/3
f 156/6/3 155/5/3 160/6/3
f 159/5/3 160/6/3 155/5/3
f 153/9/37 157/9/37 154/10/37
f 158/10/37 154/10/37 157/9/37
f 157/9/9 160/6/9 158/10/9
f 159/5/9 158/10/9 160/6/9
f 150/57/2 151/7/2 162/57/2
f 163/7/2 162/57/2 151/7/2
f 152/8/35 149/55/35 164/8/54
f 161/55/54 164/8/54 149/55/35
f 169/1/3 165/3/3 170/2/3
f 166/4/3 170/2/3 165/3/3
f 171/5/37 167/7/37 172/6/37
f 168/8/37 172/6/37 167/7/37
f 172/6/37 176/6/37 171/5/37
f 175/5/37 171/5/37 176/6/37
f 169/9/3 170/10/3 173/9/3
f 174/10/3 173/9/3 170/10/3
f 173/9/9 174/10/9 176/6/9
f 175/5/9 176/6/9 174/10/9
f 166/57/2 178/57/2 167/7/2
f 179/7/2 167/7/2 178/57/2
f 168/8/35 180/8/54 165/55/35
f 177/55/54 165/55/35 180/8/54
